<?xml version="1.0" ?><svg data-name="Livello 1" id="Livello_1" viewBox="0 0 66 66" xmlns="http://www.w3.org/2000/svg"><defs><style>.cls-1,.cls-2{fill:none;stroke:#fff;stroke-linejoin:round;stroke-width:2px;}.cls-2{stroke-linecap:round;}</style></defs><title/><path d="M1,34A32,32,0,1,0,33,2,32,32,0,0,0,1,34Z"/><g data-name="Shopping Bag" id="Shopping_Bag"><path class="cls-1" d="M26,26V23.18h0a6.51,6.51,0,0,1,13,0V26"/><path class="cls-2" d="M39.22,51H25.88a6.33,6.33,0,0,1-6.42-5.75L18.09,26.47A0.45,0.45,0,0,1,18.41,26H46.68a0.45,0.45,0,0,1,.32.47L45.63,45.18A6.39,6.39,0,0,1,39.22,51Z"/></g></svg>