<svg width="118" height="18" viewBox="0 0 118 18" fill="none" xmlns="http://www.w3.org/2000/svg">
<path fill-rule="evenodd" clip-rule="evenodd" d="M4.04485 17.7564L9.8125 13.977L15.5801 17.7564L13.7681 11.1031L19.1447 6.78564L12.2572 6.45306L9.8125 0.00537109L7.36782 6.45306L0.480255 6.78564L5.85693 11.1031L4.04485 17.7564ZM28.6699 17.7564L34.4375 13.977L40.2051 17.7564L38.3931 11.1031L43.7697 6.78564L36.8822 6.45306L34.4375 0.00537109L31.9928 6.45306L25.1053 6.78564L30.4819 11.1031L28.6699 17.7564ZM59.0625 13.977L53.2949 17.7564L55.1069 11.1031L49.7303 6.78564L56.6178 6.45306L59.0625 0.00537109L61.5072 6.45306L68.3947 6.78564L63.0181 11.1031L64.8301 17.7564L59.0625 13.977ZM77.9199 17.7564L83.6875 13.977L89.4551 17.7564L87.6431 11.1031L93.0197 6.78564L86.1322 6.45306L83.6875 0.00537109L81.2428 6.45306L74.3553 6.78564L79.7319 11.1031L77.9199 17.7564ZM108.312 13.977L102.545 17.7564L104.357 11.1031L98.9803 6.78564L105.868 6.45306L108.312 0.00537109L110.757 6.45306L117.645 6.78564L112.268 11.1031L114.08 17.7564L108.312 13.977Z" fill="#FFC54F"/>
</svg>
